<?xml version="1.0" standalone="no"?>
<!DOCTYPE svg PUBLIC "-//W3C//DTD SVG 20010904//EN"
 "http://www.w3.org/TR/2001/REC-SVG-20010904/DTD/svg10.dtd">
<svg version="1.0" xmlns="http://www.w3.org/2000/svg"
 width="778.000000pt" height="1280.000000pt" viewBox="0 0 778.000000 1280.000000"
 preserveAspectRatio="xMidYMid meet">
<metadata>
Created by potrace 1.15, written by Peter Selinger 2001-2017
</metadata>
<g transform="translate(0.000000,1280.000000) scale(0.100000,-0.100000)"
fill="#000000" stroke="none">
<path d="M2185 12785 c-33 -7 -130 -21 -215 -30 -85 -9 -184 -23 -220 -32 -40
-9 -135 -17 -248 -20 l-183 -6 -35 -54 c-19 -30 -76 -94 -125 -141 -225 -213
-359 -461 -500 -921 -26 -86 -72 -228 -102 -316 -31 -88 -65 -207 -77 -265
-52 -252 -53 -274 -57 -1125 -6 -985 3 -1132 88 -1468 69 -274 79 -373 79
-779 0 -206 -4 -337 -9 -333 -5 3 -12 -3 -15 -12 -3 -10 -25 -85 -50 -168 -24
-82 -76 -264 -115 -403 -84 -300 -98 -334 -201 -517 -102 -181 -136 -255 -154
-335 -15 -68 -36 -343 -36 -468 0 -67 2 -76 28 -102 38 -38 96 -46 189 -26
157 34 183 65 190 226 4 74 10 105 28 140 13 25 39 99 58 165 20 66 47 149 60
185 l25 65 4 -340 c4 -283 8 -355 24 -430 16 -77 18 -134 18 -405 l0 -315 -43
-295 c-23 -162 -46 -360 -51 -440 -16 -266 -76 -428 -255 -690 -50 -74 -107
-162 -125 -195 -18 -33 -50 -78 -70 -100 -40 -43 -60 -89 -60 -140 0 -18 -7
-50 -16 -71 -33 -79 8 -225 77 -275 37 -26 199 -29 199 -3 0 9 21 -12 46 -47
83 -114 135 -159 185 -159 38 0 85 59 108 135 28 96 45 119 85 112 17 -3 80
-26 139 -51 144 -61 180 -62 234 -3 39 42 133 181 133 196 0 4 -11 13 -25 19
-24 11 -27 8 -79 -71 -30 -45 -66 -93 -80 -106 -24 -22 -28 -23 -71 -11 -25 7
-48 17 -52 22 -3 6 2 8 13 5 63 -19 69 -18 99 13 l29 30 -48 0 c-32 0 -60 -7
-82 -20 l-33 -21 -73 31 c-40 17 -93 32 -117 33 -39 2 -47 -2 -74 -34 -17 -20
-42 -71 -56 -114 -14 -43 -33 -83 -42 -88 -27 -17 -62 13 -139 118 -39 52 -75
97 -80 100 -14 9 -50 -13 -50 -30 0 -12 -14 -15 -60 -15 -48 0 -63 4 -80 23
-37 38 -51 77 -51 135 0 64 20 99 69 121 25 12 32 21 32 44 0 28 -1 29 -35 23
-46 -9 -45 4 4 57 22 24 59 76 82 117 23 41 84 137 136 212 178 261 215 375
278 873 56 438 57 457 62 800 4 285 2 357 -12 445 -9 58 -19 134 -21 170 -4
57 -3 62 8 43 25 -41 342 -405 397 -455 75 -69 238 -175 333 -218 l78 -35 0
-92 c0 -84 -2 -92 -21 -98 -11 -4 -28 -23 -36 -43 -22 -52 -64 -111 -114 -158
-149 -140 -152 -142 -209 -150 -37 -5 -69 -17 -98 -38 -52 -37 -42 -43 35 -21
114 33 248 120 370 240 l73 72 0 -58 c0 -33 -4 -59 -9 -59 -6 0 -26 -31 -46
-68 -19 -38 -55 -88 -79 -111 -41 -40 -50 -44 -147 -62 -71 -14 -116 -28 -141
-46 -68 -46 -66 -52 9 -37 200 39 250 63 371 178 l42 40 0 -40 c0 -38 -3 -42
-40 -59 -29 -13 -48 -32 -69 -69 -16 -28 -65 -93 -109 -144 -45 -51 -90 -105
-101 -120 -15 -21 -33 -30 -83 -41 -75 -15 -92 -23 -138 -61 -32 -27 -33 -29
-10 -24 161 36 315 127 400 236 22 29 57 73 78 98 20 25 45 57 55 70 18 25 18
25 13 -35 -7 -108 -127 -375 -212 -475 -92 -108 -148 -204 -200 -340 -28 -75
-28 -76 -34 -373 l-5 -297 33 0 32 0 0 263 c0 234 2 270 21 337 34 124 108
259 204 371 54 63 138 224 190 363 l36 99 0 164 c-1 104 3 171 10 184 8 16 8
23 -1 29 -9 6 -10 174 -5 741 12 1161 13 1089 -13 1208 -12 57 -21 105 -20
107 2 1 75 7 163 13 185 13 234 6 313 -49 62 -43 104 -96 211 -273 98 -160
134 -248 97 -234 -33 13 -76 -153 -156 -591 -66 -364 -111 -526 -193 -689 -40
-79 -75 -196 -102 -341 -58 -312 -85 -401 -152 -511 -47 -79 -89 -193 -103
-283 -16 -97 -3 -196 41 -309 38 -99 43 -161 24 -290 -20 -134 -19 -179 8
-244 22 -56 33 -63 68 -45 22 12 26 -2 4 -20 -38 -31 -68 -167 -80 -365 -4
-55 -15 -136 -26 -180 -25 -105 -25 -226 0 -280 44 -95 90 -110 316 -102 94 3
183 3 198 0 20 -4 41 -24 73 -68 91 -129 161 -168 259 -148 69 15 146 53 221
109 53 40 59 43 62 24 3 -18 11 -20 93 -20 102 0 149 15 176 56 17 26 18 53
15 389 -4 400 2 463 59 581 26 55 55 94 62 83 24 -35 100 -218 109 -262 11
-53 14 -57 40 -57 25 0 28 3 28 35 0 48 -32 139 -86 247 -27 55 -56 133 -74
206 -38 151 -99 328 -195 572 -160 402 -190 528 -205 854 -5 116 -21 319 -34
451 -14 132 -27 332 -31 445 -4 113 -18 347 -31 520 -36 459 -39 586 -20 890
9 146 17 322 19 392 1 69 3 125 5 123 3 -3 15 -53 53 -235 10 -52 29 -154 40
-228 11 -73 29 -168 40 -210 16 -60 23 -128 29 -307 9 -250 19 -307 71 -404
22 -42 28 -48 24 -26 -4 17 -10 170 -15 340 -7 288 -15 373 -40 450 -5 17 -19
89 -29 160 -11 72 -38 214 -60 315 -22 102 -47 228 -56 280 -17 99 -62 268
-77 285 -4 5 -8 -35 -8 -89 0 -65 -3 -95 -10 -91 -6 4 -22 -1 -36 -9 -21 -15
-23 -19 -12 -39 20 -35 21 -335 4 -616 -22 -351 -20 -555 9 -911 23 -284 25
-349 10 -287 -4 14 -29 60 -55 102 -53 84 -70 125 -190 449 -96 259 -108 307
-120 478 -12 165 -45 343 -79 431 -6 16 -61 80 -121 142 -118 123 -178 207
-258 362 -28 55 -70 124 -94 154 -81 103 -242 235 -272 223 -9 -3 -16 -1 -16
5 0 6 -9 11 -20 11 -22 0 -26 -17 -7 -40 7 -8 44 -39 84 -68 124 -91 200 -182
280 -335 88 -167 128 -223 259 -357 82 -86 104 -114 114 -150 6 -25 15 -58 20
-75 20 -65 39 -196 45 -305 6 -99 20 -190 41 -265 3 -11 -17 17 -46 63 -66
107 -133 172 -217 214 -78 38 -146 44 -343 31 -110 -8 -114 -9 -120 -33 -5
-23 -43 192 -57 323 -5 54 -16 66 -55 67 -21 0 -2 -172 51 -452 l27 -147 -25
6 c-14 3 -50 19 -79 34 -29 15 -78 33 -110 39 -111 23 -258 125 -297 206 -10
21 -21 81 -26 143 -5 58 -16 144 -24 191 -8 47 -17 130 -20 185 -5 84 -4 97 7
81 7 -10 30 -44 50 -75 45 -67 161 -196 222 -246 l45 -36 43 27 c24 16 44 29
46 30 2 1 -42 46 -96 100 -146 146 -219 254 -266 394 -32 96 -42 185 -61 545
-9 160 -23 362 -31 450 -11 108 -17 327 -21 675 -4 434 -3 540 11 673 27 259
62 390 151 566 63 125 300 620 315 659 7 18 10 35 8 38 -3 3 -26 -5 -51 -17
-38 -19 -50 -31 -68 -73 -42 -101 -139 -306 -258 -548 -174 -355 -194 -439
-213 -903 -12 -301 0 -860 27 -1155 8 -91 19 -271 25 -400 6 -129 13 -271 16
-315 l6 -80 -71 -37 -71 -37 0 217 c0 382 -17 539 -90 842 -71 299 -90 510
-90 1035 l0 321 75 37 75 37 0 172 c0 250 28 870 46 1028 33 290 138 678 236
875 71 142 101 190 287 458 l164 237 142 0 c79 0 158 3 176 7 l34 6 -53 -58
c-109 -119 -262 -336 -337 -478 -51 -97 -80 -168 -187 -462 -95 -264 -134
-357 -226 -536 -38 -75 -86 -179 -107 -230 -54 -137 -156 -439 -153 -455 2
-10 19 -6 68 17 l65 30 53 162 c79 240 137 385 219 547 92 179 121 248 223
531 126 349 158 418 257 554 165 228 235 330 251 362 17 36 16 36 222 58 80 9
163 21 184 26 123 33 423 -15 557 -87 52 -29 129 -106 129 -130 0 -19 -194
-161 -299 -219 -49 -27 -92 -55 -95 -62 -2 -6 1 -19 8 -29 13 -17 19 -15 107
25 52 23 142 76 201 117 60 41 114 77 122 80 8 3 18 -7 26 -26 17 -42 34 -51
170 -100 135 -48 141 -52 208 -122 l51 -53 -62 -29 c-34 -15 -120 -51 -192
-78 -176 -67 -321 -144 -446 -237 -166 -124 -198 -161 -354 -416 -27 -44 -65
-97 -83 -117 -19 -21 -32 -38 -29 -38 2 0 30 11 60 25 65 28 96 66 208 255 60
100 93 143 171 221 121 121 161 147 312 205 142 55 395 170 415 189 12 12 22
10 64 -11 64 -33 163 -54 256 -54 l73 0 -16 -22 c-8 -13 -41 -68 -72 -123 -84
-150 -108 -182 -214 -282 -103 -98 -169 -180 -243 -303 -24 -41 -67 -112 -94
-157 -153 -250 -247 -603 -388 -1448 -32 -193 -38 -332 -44 -1043 -3 -402 -5
-732 -3 -732 1 0 25 11 52 25 l50 25 0 558 c0 773 15 1015 85 1425 61 360 124
644 191 864 82 273 318 664 498 827 88 79 177 193 238 303 22 40 43 73 46 73
4 0 45 -5 92 -10 47 -6 147 -15 224 -20 127 -8 144 -12 210 -43 39 -19 111
-60 160 -92 113 -73 216 -122 272 -131 59 -8 66 -24 12 -24 -63 0 -458 -55
-568 -79 -154 -34 -301 -116 -510 -284 -248 -199 -276 -243 -449 -695 -22 -57
-36 -102 -33 -100 4 2 28 11 54 22 44 17 49 23 72 85 14 36 49 130 79 207 74
197 124 281 227 384 144 144 293 256 380 286 116 40 740 128 785 110 8 -3 33
9 56 26 l43 31 54 -19 c32 -10 74 -36 102 -61 49 -44 64 -73 96 -188 20 -72
70 -127 129 -144 22 -6 85 -11 141 -11 147 0 187 -18 325 -149 l74 -70 -108
-1 c-98 0 -112 -3 -160 -27 l-52 -28 115 -3 c101 -3 121 0 162 19 l47 22 138
-134 c76 -74 173 -156 215 -184 64 -42 98 -76 98 -100 0 -3 -27 15 -60 39 -33
24 -81 52 -106 62 -45 17 -47 17 -117 -5 -84 -27 -388 -144 -384 -148 6 -5
108 27 220 70 118 45 118 45 166 31 28 -8 94 -47 155 -90 78 -56 111 -74 126
-69 19 6 20 2 20 -73 0 -92 9 -125 79 -290 29 -68 56 -148 61 -178 14 -86 19
-96 44 -92 52 7 92 -43 166 -207 96 -212 101 -218 291 -411 221 -224 227 -235
241 -433 6 -76 8 -359 5 -641 -5 -417 -8 -518 -22 -580 -31 -142 -55 -208
-105 -284 -27 -42 -74 -130 -104 -197 -30 -66 -62 -132 -71 -146 -15 -22 -350
-279 -398 -305 -20 -10 -20 -6 -13 203 3 118 9 262 12 321 7 113 -1 174 -37
303 -35 123 -47 141 -86 128 -15 -5 -17 -54 -4 -68 11 -12 46 -139 60 -217 7
-41 6 -122 -5 -290 -8 -128 -14 -262 -13 -297 l2 -65 -56 -11 c-45 -9 -67 -21
-110 -61 -30 -27 -75 -66 -101 -87 l-46 -38 6 45 c6 41 5 46 -13 46 -15 0 -22
-11 -32 -52 -22 -96 -74 -188 -145 -257 l-66 -63 -30 31 c-37 37 -84 51 -170
51 -72 0 -138 -24 -162 -59 l-15 -22 -27 32 c-15 17 -35 48 -45 68 -22 42
-101 283 -101 306 0 8 -9 15 -20 15 -28 0 -26 -23 16 -158 64 -206 130 -304
211 -317 53 -9 67 -18 79 -53 13 -40 23 -50 54 -53 68 -6 80 -1 100 45 16 39
24 46 57 52 83 15 216 140 264 249 17 38 24 45 48 45 27 0 111 62 242 179 31
28 58 51 60 51 2 0 3 -26 3 -57 -1 -56 -3 -58 -33 -69 -18 -6 -40 -24 -50 -40
-34 -55 -118 -122 -207 -165 l-89 -44 41 -3 c42 -3 132 31 211 81 39 25 41 25
77 9 41 -19 48 -35 11 -30 -29 4 -35 -16 -5 -20 24 -4 26 -27 3 -40 -11 -7
-23 -6 -34 1 -10 6 -22 8 -26 4 -4 -5 -1 -12 7 -17 17 -10 15 -12 -26 -33 -22
-11 -34 -13 -42 -5 -5 5 -16 7 -22 3 -9 -6 -9 -9 0 -15 8 -5 -8 -19 -43 -39
-30 -17 -59 -31 -64 -31 -5 0 -21 -18 -36 -40 -14 -22 -24 -40 -23 -40 2 0 50
18 107 39 155 58 148 57 112 23 -21 -20 -38 -29 -52 -25 -15 4 -19 1 -15 -14
3 -12 -6 -29 -25 -47 -17 -17 -31 -24 -31 -18 0 7 -5 12 -11 12 -6 0 -8 -11
-4 -28 5 -25 -2 -36 -67 -98 -108 -105 -112 -106 -413 -102 -225 3 -253 5
-278 22 -15 10 -26 20 -25 21 7 5 289 -15 353 -25 66 -10 75 -9 160 18 l90 29
-55 12 c-30 7 -137 17 -236 22 -191 11 -176 12 -316 -31 -22 -7 -40 0 -107 40
-45 27 -103 67 -130 89 l-48 41 8 47 c9 49 7 59 -10 48 -6 -3 -11 -23 -11 -43
l-1 -37 -40 43 c-32 34 -40 48 -35 68 6 24 -8 34 -17 12 -8 -18 -27 11 -20 29
7 18 12 17 100 -23 43 -19 108 -42 145 -49 59 -13 72 -13 114 2 l48 16 -89 24
c-49 13 -129 41 -179 62 -84 36 -91 41 -88 65 3 28 -12 36 -21 12 -4 -9 -14
-12 -27 -9 -15 4 -19 11 -15 22 4 9 9 22 12 29 10 25 -13 11 -30 -18 -10 -17
-26 -30 -36 -30 -22 0 -47 48 -31 64 16 16 12 28 -9 21 -33 -10 -33 22 1 50
36 30 30 45 -8 20 -22 -14 -28 -15 -35 -4 -14 23 -10 29 16 29 14 0 25 5 25
10 0 6 -11 10 -25 10 -28 0 -36 30 -7 30 16 1 16 2 -1 14 -12 9 -17 24 -15 42
3 28 4 27 46 -26 93 -118 192 -208 256 -235 38 -16 136 -12 136 6 0 4 -33 34
-72 66 -109 86 -218 183 -235 210 -15 23 -15 26 7 46 18 18 23 19 27 7 12 -34
208 -198 221 -185 2 2 0 29 -3 60 -7 51 -11 59 -44 80 -21 12 -61 50 -90 84
l-53 61 1 208 c2 174 -1 223 -19 306 -11 55 -22 102 -25 104 -16 16 -14 -18 4
-109 17 -82 21 -139 21 -295 0 -106 -4 -195 -9 -198 -5 -3 -12 -21 -15 -40 -6
-33 -40 -86 -55 -86 -4 0 -14 12 -21 26 -12 22 -19 25 -49 19 l-34 -7 6 361 7
361 -30 0 c-25 0 -30 -4 -30 -25 0 -14 -3 -25 -6 -25 -24 0 -121 104 -170 180
-43 68 -62 90 -78 90 -30 -1 -106 -16 -112 -23 -9 -8 103 -176 140 -211 17
-16 73 -61 124 -99 l93 -70 -2 -159 c0 -112 -4 -158 -12 -158 -7 0 -60 49
-119 109 -110 112 -155 182 -179 275 -6 25 -13 46 -16 46 -21 0 -133 -34 -133
-41 0 -24 46 -126 80 -176 36 -55 172 -183 312 -295 43 -35 63 -58 64 -74 1
-29 -1 -29 -34 -5 -15 10 -71 43 -125 74 -79 44 -108 67 -148 117 -116 144
-187 305 -213 481 -21 138 -40 672 -33 929 6 238 18 306 82 474 86 227 190
383 414 623 72 78 148 162 168 188 32 43 33 46 13 40 -64 -20 -92 -39 -119
-79 -17 -25 -85 -101 -151 -171 -256 -270 -367 -444 -462 -728 -37 -112 -40
-126 -48 -300 -6 -100 -19 -305 -31 -454 -22 -297 -20 -377 21 -597 32 -174
84 -276 228 -442 85 -98 163 -162 262 -214 l77 -39 47 29 c26 17 49 30 52 30
3 0 4 -37 2 -82 -3 -81 -3 -82 -33 -90 -16 -5 -77 -10 -135 -11 -100 -2 -109
0 -200 36 -52 21 -117 52 -145 68 -68 41 -157 155 -245 313 -61 110 -78 152
-116 285 -24 86 -48 188 -54 226 -13 90 -13 761 0 975 12 194 40 361 81 483
16 49 98 225 181 392 l152 303 -55 59 c-123 133 -302 369 -344 453 -33 67
-103 361 -111 465 -8 108 8 225 37 272 12 18 40 44 63 58 36 21 55 25 127 25
91 0 197 -24 247 -56 42 -26 217 -215 238 -256 9 -18 42 -76 74 -128 171 -286
200 -338 206 -368 6 -30 10 -33 38 -30 27 3 31 7 28 28 -4 33 -50 126 -110
225 -27 44 -83 139 -124 210 -42 72 -90 146 -107 166 -17 20 -31 39 -31 42 0
2 12 7 28 10 28 5 128 46 224 91 31 15 106 60 167 101 110 74 112 75 176 75
50 0 77 6 115 25 28 14 50 28 50 31 0 10 -136 -6 -193 -23 -84 -24 -205 -88
-308 -163 -53 -38 -110 -72 -125 -76 -16 -4 -56 -20 -88 -36 l-59 -30 -71 75
c-98 103 -176 138 -337 151 -147 12 -243 -33 -295 -141 -26 -53 -29 -69 -32
-193 -4 -145 4 -200 68 -440 41 -155 99 -248 315 -505 58 -69 105 -130 105
-136 0 -6 -64 -137 -143 -292 -235 -462 -247 -521 -256 -1242 l-6 -490 -36 65
c-105 187 -141 285 -197 537 -47 207 -78 408 -87 568 -6 106 9 533 21 594 l6
30 -60 -20 -60 -20 -8 -97 c-13 -150 -10 -555 4 -677 30 -256 91 -538 149
-695 41 -112 124 -276 189 -378 40 -63 49 -71 69 -66 20 5 25 1 31 -23 3 -15
26 -97 50 -181 35 -123 55 -176 110 -275 69 -126 144 -234 209 -301 35 -35
182 -116 212 -116 7 0 13 -4 13 -8 0 -4 -115 -21 -255 -37 -140 -15 -255 -32
-255 -37 0 -12 25 -10 308 22 247 29 265 30 314 15 28 -8 64 -15 78 -15 49 0
40 -12 -38 -50 -42 -20 -105 -55 -139 -76 -34 -21 -81 -50 -104 -64 -23 -14
-83 -69 -135 -123 l-94 -99 -65 102 c-130 199 -330 590 -455 886 -162 386
-237 647 -260 904 -14 172 -31 280 -41 280 -12 0 -139 -65 -161 -82 -15 -12
-15 -24 3 -188 34 -308 128 -640 286 -1010 27 -63 62 -146 76 -185 15 -38 59
-128 98 -200 39 -71 100 -186 136 -255 51 -98 183 -308 267 -425 19 -26 -103
-192 -173 -236 -16 -10 -21 -18 -14 -22 21 -13 98 59 156 145 l58 86 52 -54
52 -53 92 37 92 37 -90 100 c-49 54 -89 105 -89 112 0 7 46 60 103 116 80 82
124 116 207 164 155 91 259 138 272 125 8 -8 19 -4 40 13 42 36 64 32 78 -11
l12 -37 -171 -171 c-96 -95 -196 -206 -227 -251 -31 -44 -67 -91 -80 -106 -24
-26 -32 -59 -14 -59 6 0 10 6 10 14 0 7 7 19 15 26 9 7 41 50 72 94 50 72 386
426 404 426 4 0 11 -9 14 -20 4 -14 -3 -32 -23 -58 -16 -20 -53 -73 -82 -116
-29 -44 -76 -102 -104 -131 -31 -32 -70 -88 -100 -146 -103 -198 -155 -276
-277 -414 -156 -179 -208 -233 -294 -308 -66 -57 -105 -101 -105 -121 0 -8 18
-5 51 8 20 9 22 0 79 -402 35 -244 70 -445 96 -546 6 -26 5 -27 -13 -18 -37
20 -124 105 -201 196 -42 50 -133 152 -202 226 -175 188 -234 268 -358 486
-49 85 -57 94 -138 148 -101 68 -101 79 3 -153 119 -265 219 -413 368 -546 52
-47 120 -126 205 -240 151 -204 282 -343 378 -405 l71 -45 42 -105 c53 -136
172 -490 166 -496 -11 -11 -439 427 -518 530 -46 60 -95 117 -109 127 -14 11
-49 23 -79 29 -29 5 -80 24 -113 40 l-60 31 20 -28 c75 -103 437 -522 626
-723 140 -149 249 -303 322 -454 43 -89 47 -102 55 -208 4 -62 17 -169 29
-238 11 -69 20 -150 20 -181 0 -69 20 -179 65 -355 35 -135 38 -167 61 -584 7
-120 6 -130 -52 -336 -17 -59 -17 -61 7 -122 23 -59 26 -62 57 -62 37 0 37 3
6 79 -16 38 -18 79 -5 99 6 9 26 -13 68 -75 135 -196 177 -333 141 -457 -15
-54 -17 -55 -74 -65 -27 -5 -81 -16 -121 -25 -63 -14 -76 -14 -106 -1 -19 8
-37 20 -40 27 -6 17 -97 11 -97 -6 0 -6 -19 -23 -43 -37 -36 -23 -56 -27 -147
-32 -109 -5 -192 -24 -120 -27 29 -1 32 -3 15 -10 -37 -16 89 -11 136 5 l44
15 -25 -19 c-34 -27 -93 -40 -135 -31 -39 9 -52 17 -107 69 -30 27 -40 32 -51
22 -8 -6 -21 -9 -29 -6 -9 4 -19 -4 -27 -19 -8 -14 -40 -38 -71 -55 -80 -43
-152 -43 -224 -2 -80 46 -116 95 -116 157 0 19 -5 24 -25 24 -16 0 -23 4 -19
13 2 7 -4 21 -14 31 -19 16 -21 16 -57 -9 -37 -24 -64 -30 -135 -26 -57 3
-143 22 -170 38 l-25 14 25 -6 c39 -10 41 -10 113 -1 68 8 78 15 54 35 -33 27
-101 22 -188 -14 -24 -9 -43 45 -35 96 10 64 51 138 132 238 41 51 81 106 89
122 9 16 20 29 25 29 6 0 10 13 10 29 0 43 70 101 121 101 36 0 38 2 45 37 10
53 -2 222 -25 348 -11 61 -50 227 -85 371 -80 320 -106 447 -106 513 0 46 -2
51 -26 57 -36 9 -45 -10 -38 -76 11 -105 26 -177 95 -455 89 -356 119 -520
119 -641 0 -83 -2 -94 -17 -94 -49 -1 -132 -80 -155 -146 -10 -29 -50 -89 -98
-149 -107 -132 -144 -207 -148 -300 -3 -61 -1 -75 20 -105 32 -47 87 -75 187
-95 100 -21 173 -16 229 13 l42 22 0 -35 c0 -82 51 -144 161 -199 110 -55 200
-45 313 34 l59 41 26 -24 c47 -44 92 -61 161 -62 72 0 93 9 218 97 l67 47 110
-39 c160 -58 199 -55 276 27 48 50 65 86 80 164 23 125 -35 294 -159 468 -71
100 -68 98 -92 76 -25 -22 -25 -19 0 74 24 91 25 184 5 483 -12 194 -18 235
-55 379 -24 96 -45 206 -51 273 -5 61 -19 172 -30 246 -10 74 -21 178 -24 230
-12 238 -134 680 -327 1185 -140 366 -177 524 -253 1090 -15 112 -29 198 -41
254 -4 17 -10 22 -24 18 -11 -3 -18 -1 -14 4 3 5 10 9 16 9 6 0 70 21 142 47
l131 48 114 110 c77 74 108 99 94 75 -40 -66 -150 -295 -187 -386 -43 -110
-90 -259 -117 -374 -11 -47 -22 -93 -25 -102 -3 -12 0 -18 9 -18 10 0 17 16
22 47 10 71 81 312 121 415 84 216 234 494 322 598 86 101 85 100 68 59 -8
-20 -51 -182 -95 -360 -84 -342 -122 -472 -176 -600 -38 -91 -28 -120 11 -32
48 110 104 297 179 599 41 166 75 309 75 316 0 29 102 221 183 344 47 71 98
156 113 187 49 100 44 51 -8 -71 -58 -137 -131 -346 -158 -452 -10 -41 -30
-163 -45 -270 -27 -202 -46 -294 -72 -343 -17 -34 -8 -51 13 -22 31 41 54 152
89 425 19 142 33 205 77 340 37 117 147 398 157 404 4 3 28 -16 54 -42 l46
-47 -55 -200 c-40 -146 -57 -225 -61 -292 -4 -60 -2 -93 4 -93 6 0 12 37 15
83 4 54 24 152 59 284 l53 202 26 -20 c30 -24 141 -97 240 -158 39 -24 88 -47
108 -51 20 -5 150 -5 287 -1 295 8 304 11 414 124 l69 70 46 -79 c67 -114 204
-386 231 -459 13 -35 45 -141 71 -237 50 -187 93 -308 123 -348 30 -39 34 -18
6 32 -33 60 -55 124 -115 343 -66 241 -147 425 -296 674 l-56 94 20 26 c10 14
24 26 30 26 14 0 270 -299 322 -375 72 -106 145 -276 194 -455 35 -128 37
-133 43 -118 12 34 -66 286 -136 437 -52 113 -95 173 -260 366 -77 91 -141
167 -141 170 0 3 19 20 42 39 l41 35 44 -50 c138 -156 291 -392 403 -620 43
-88 86 -166 95 -174 22 -18 32 -4 12 17 -8 10 -45 79 -81 153 -107 222 -246
441 -382 602 l-74 86 17 31 c10 17 21 31 24 31 12 0 301 -294 405 -412 201
-228 388 -477 444 -593 12 -25 26 -45 31 -45 13 0 12 5 -17 63 -96 189 -384
545 -693 853 l-161 162 12 33 c6 19 12 36 14 38 2 2 38 -19 81 -46 43 -27 107
-67 143 -88 89 -53 170 -116 264 -205 157 -148 288 -324 550 -737 82 -128 152
-230 158 -227 5 3 2 17 -8 32 -10 15 -74 115 -142 222 -396 623 -522 757 -951
1020 -87 53 -106 70 -78 70 16 0 202 -76 557 -229 276 -118 322 -147 364 -228
13 -27 26 -41 30 -35 18 29 -71 140 -141 175 -44 23 -577 251 -693 297 -58 23
-109 45 -114 50 -5 5 -5 25 -2 44 l7 36 72 0 c86 0 228 -22 318 -49 35 -11 80
-22 99 -26 51 -10 188 -76 261 -126 35 -23 115 -92 179 -152 63 -60 138 -126
165 -147 49 -36 133 -75 142 -66 9 9 -8 26 -26 26 -33 0 -135 77 -268 203 -72
69 -165 145 -205 170 -85 53 -188 102 -238 112 -19 4 -64 15 -99 26 -92 28
-233 49 -323 49 l-78 0 0 54 0 54 83 58 c166 116 356 264 380 296 14 18 51 90
82 161 32 70 70 145 86 166 67 93 108 209 134 381 18 117 22 1183 4 1289 -15
97 -52 165 -142 257 -43 46 -76 87 -73 92 3 5 33 19 66 31 100 37 227 156 268
252 11 24 49 89 85 145 36 55 77 130 90 167 14 38 48 105 76 151 78 127 83
144 88 291 l5 130 -34 54 c-18 30 -44 63 -58 73 -14 10 -81 29 -149 43 -184
37 -350 32 -446 -15 -29 -14 -117 -98 -275 -262 l-233 -241 24 -18 c13 -10 26
-18 30 -16 3 1 104 105 225 230 127 133 235 237 258 249 50 25 181 38 287 27
96 -9 229 -38 247 -52 8 -6 25 -33 39 -60 23 -47 24 -55 18 -155 -9 -120 -15
-139 -89 -260 -30 -48 -61 -111 -71 -140 -9 -29 -43 -92 -74 -140 -32 -48 -77
-124 -100 -170 -54 -102 -146 -189 -237 -223 -32 -12 -67 -29 -77 -37 -16 -15
-22 -11 -83 49 -83 82 -111 125 -190 300 -72 160 -97 198 -160 242 -36 25 -45
38 -55 81 -6 28 -30 92 -51 141 -72 165 -79 191 -88 337 -10 185 -22 210 -139
285 -65 42 -133 102 -281 252 -289 293 -317 311 -469 311 -116 0 -190 15 -218
43 -13 13 -32 55 -43 96 -26 93 -51 141 -97 187 -58 58 -125 84 -335 129 -78
17 -121 38 -323 164 -111 68 -201 101 -279 101 -28 0 -124 7 -213 17 -140 15
-161 19 -150 32 10 12 9 13 -10 3 -26 -15 -129 -15 -243 -2 -110 13 -189 51
-257 124 -58 62 -80 75 -207 121 -140 51 -137 49 -181 133 -50 95 -140 189
-215 224 -100 47 -342 99 -454 97 -33 -1 -88 -7 -121 -14z m-1689 -2535 l-15
-375 5 375 c2 206 8 407 12 445 l7 70 2 -70 c2 -38 -4 -239 -11 -445z m79
-4070 c-16 -31 -94 -238 -115 -305 -7 -22 -33 -87 -57 -145 -43 -98 -46 -112
-52 -223 -6 -99 -10 -121 -27 -138 -42 -42 -207 -65 -238 -33 -19 18 -19 24
-6 234 19 300 29 333 165 575 116 205 135 254 241 630 l99 350 3 -458 c2 -392
0 -462 -13 -487z m101 623 c7 -48 18 -141 24 -205 11 -123 27 -183 58 -222 36
-46 134 -125 187 -150 47 -22 366 -97 513 -121 49 -8 47 5 35 -217 l-6 -128
-109 0 c-75 0 -120 5 -146 15 -51 22 -114 86 -248 252 -71 88 -147 170 -202
216 -133 114 -120 72 -124 384 -1 149 -1 270 1 268 2 -3 10 -44 17 -92z m4094
-272 c0 -26 -47 -33 -85 -13 l-30 17 45 6 c25 3 51 7 58 7 6 1 12 -6 12 -17z
m1687 -101 c2 -39 1 -40 -25 -34 -15 4 -29 8 -31 11 -3 2 48 63 54 63 0 0 1
-18 2 -40z m-1574 -209 c-6 -18 -24 -29 -73 -46 -36 -12 -74 -25 -84 -30 -20
-9 -1 23 82 138 l35 48 24 -43 c19 -32 23 -49 16 -67z m107 27 c0 -16 -20 -7
-30 12 -10 19 -10 20 9 8 12 -7 21 -16 21 -20z m803 -11 c18 -8 38 -21 46 -30
12 -15 11 -17 -9 -17 -27 0 -80 -52 -80 -79 0 -17 -6 -21 -35 -21 -29 0 -35 4
-35 21 0 29 -53 79 -84 79 -29 0 -33 11 -12 29 37 31 154 40 209 18z m-5033
-348 c52 -66 115 -139 140 -163 61 -57 182 -121 255 -134 58 -11 257 -32 303
-32 l22 0 0 -275 c0 -215 -3 -275 -13 -275 -17 0 -101 58 -160 110 -59 53
-244 268 -283 331 -16 26 -101 124 -189 218 -88 95 -164 179 -168 187 -10 17
-15 154 -7 154 3 -1 48 -55 100 -121z m1618 -86 c6 -16 23 -59 37 -97 14 -38
42 -99 62 -135 20 -36 57 -106 82 -156 33 -65 51 -90 64 -89 23 2 25 -10 31
-236 2 -107 16 -307 29 -445 14 -137 28 -313 31 -390 l6 -140 -100 -115 c-185
-212 -256 -333 -386 -666 -73 -187 -100 -245 -158 -329 l-41 -60 -10 48 c-6
26 -14 48 -18 48 -4 0 -22 -3 -40 -6 l-33 -6 11 -57 c11 -52 14 -57 38 -57 15
1 27 -1 27 -2 0 -2 -29 -47 -64 -100 -62 -93 -160 -213 -174 -213 -4 0 -16 24
-26 52 -20 57 -22 124 -6 208 20 104 8 230 -22 230 -5 0 -6 5 -3 11 4 5 -3 34
-15 62 -36 81 -50 146 -50 225 0 105 13 149 95 317 95 195 105 230 155 505 32
175 55 251 126 412 79 180 116 319 184 693 50 274 92 461 111 497 15 27 45 22
57 -9z m436 -2149 c24 -72 82 -227 129 -345 95 -240 145 -389 177 -529 13 -52
27 -104 33 -115 8 -18 7 -17 -16 3 l-25 23 -25 -33 c-39 -53 -66 -113 -87
-196 -18 -69 -20 -114 -20 -458 0 -343 -2 -383 -17 -395 -20 -17 -173 -26
-173 -11 0 6 6 12 13 15 8 3 4 13 -12 31 l-25 26 -30 -28 c-105 -99 -224 -162
-303 -162 -63 0 -96 25 -168 126 -69 96 -75 98 -295 91 -203 -7 -239 -1 -273
44 -32 44 -33 136 -3 266 14 61 26 140 26 175 0 86 18 220 36 276 10 28 34 66
62 95 l47 47 17 -72 c10 -40 26 -84 37 -98 43 -58 132 -81 184 -47 15 10 47
58 78 118 30 59 76 128 107 163 94 104 161 200 181 257 10 30 36 90 58 134 22
44 48 107 58 139 23 82 72 176 140 270 48 68 54 81 42 93 -12 12 -19 8 -51
-31 -81 -100 -139 -210 -181 -346 -9 -30 -34 -86 -55 -125 -21 -38 -45 -93
-54 -122 -19 -56 -53 -106 -160 -229 -39 -45 -86 -112 -105 -150 -62 -126 -77
-144 -116 -144 -72 0 -107 44 -126 159 l-12 70 147 218 c143 214 148 222 231
431 145 361 201 461 366 651 l73 84 23 -119 c13 -65 43 -178 67 -250z m2033
-3479 c-29 -25 -56 -30 -92 -15 -18 7 -17 8 10 15 17 4 44 11 60 15 48 13 52
11 22 -15z"/>
<path d="M2057 2019 c-16 -10 -17 -20 -11 -92 3 -45 8 -85 11 -89 2 -4 15 -2
28 4 24 11 25 14 19 77 -10 115 -12 120 -47 100z"/>
<path d="M2865 1996 c-15 -11 -19 -29 -21 -100 -2 -89 4 -100 39 -73 12 9 17
33 19 100 3 90 -1 99 -37 73z"/>
<path d="M2587 1979 c-39 -23 -63 -130 -46 -211 14 -66 22 -75 53 -59 23 13
23 15 10 47 -18 43 -17 137 1 189 8 22 15 41 15 43 0 5 -16 1 -33 -9z"/>
<path d="M2240 12607 c-174 -101 -262 -162 -355 -247 -153 -139 -268 -286
-351 -450 -38 -76 -223 -513 -219 -518 1 -2 33 12 71 30 l69 34 77 189 c170
419 285 592 528 799 47 40 112 90 145 111 50 31 113 78 160 117 21 18 -7 4
-125 -65z"/>
<path d="M2575 12516 c-131 -49 -227 -100 -328 -175 -61 -46 -126 -146 -292
-451 -225 -413 -281 -506 -382 -632 -30 -38 -52 -68 -49 -68 2 0 35 14 72 31
116 52 180 144 484 699 126 231 211 374 252 423 13 15 57 43 101 61 42 19 109
55 147 82 93 63 93 67 -5 30z"/>
<path d="M3140 11618 c-25 -11 -53 -32 -62 -46 -8 -15 -41 -69 -72 -121 -32
-51 -77 -133 -101 -181 -40 -79 -49 -90 -98 -118 -106 -60 -147 -131 -242
-415 -114 -345 -144 -532 -152 -949 -3 -164 -3 -298 1 -298 4 0 29 11 56 25
l50 25 0 254 c0 463 33 658 188 1096 74 210 89 242 124 261 13 7 11 -4 -12
-54 -25 -55 -38 -109 -53 -209 -2 -16 -2 -28 0 -28 2 0 26 11 53 25 43 22 50
30 55 62 17 103 29 144 66 227 52 115 148 290 211 383 26 40 48 75 48 78 0 8
-11 5 -60 -17z"/>
<path d="M1999 11506 c-115 -77 -138 -113 -279 -441 -44 -100 -106 -240 -139
-311 -112 -244 -160 -446 -196 -834 -46 -497 -57 -772 -52 -1325 3 -459 6
-524 25 -649 12 -77 24 -141 26 -143 2 -3 27 7 55 22 43 21 50 29 46 48 -53
244 -67 635 -45 1327 24 769 89 1236 212 1515 22 50 84 192 138 317 55 125
105 240 113 255 26 49 98 123 169 173 l69 48 -27 21 c-15 12 -32 21 -38 21 -6
0 -41 -20 -77 -44z"/>
<path d="M2476 11292 c-41 -23 -57 -40 -98 -112 -64 -114 -143 -301 -178 -427
-30 -105 -56 -321 -80 -658 -13 -178 -26 -1161 -16 -1227 l7 -45 47 25 47 25
0 556 c0 453 3 594 18 761 27 303 55 516 78 595 43 147 118 323 197 463 22 39
38 72 34 72 -4 0 -29 -13 -56 -28z"/>
<path d="M3910 10829 c-80 -59 -101 -79 -121 -124 -19 -41 -25 -105 -10 -105
4 0 11 21 15 47 8 59 38 99 120 157 68 49 99 55 144 32 15 -8 88 -79 163 -158
110 -117 147 -164 193 -246 79 -140 86 -166 86 -293 0 -66 4 -109 10 -109 16
0 13 220 -4 266 -7 22 -39 86 -71 143 -48 85 -83 130 -199 253 -78 83 -153
156 -168 164 -49 25 -98 17 -158 -27z"/>
<path d="M5295 10613 c-161 -12 -297 -27 -330 -35 -55 -13 -206 -70 -201 -75
2 -3 33 3 68 12 157 40 547 59 632 30 41 -14 51 -14 101 1 60 17 62 31 7 52
-25 10 -209 20 -277 15z"/>
<path d="M5413 10480 c-105 -13 -218 -61 -346 -147 -140 -94 -143 -97 -77 -77
77 23 107 39 172 96 34 29 77 55 105 63 65 20 207 19 266 -1 43 -14 51 -14 97
1 27 9 50 21 50 26 0 33 -144 54 -267 39z"/>
<path d="M7278 10440 c-106 -36 -213 -89 -251 -125 -15 -14 -41 -54 -58 -88
-17 -34 -78 -130 -135 -214 -57 -84 -104 -155 -104 -158 0 -37 194 235 257
363 45 89 92 124 251 185 89 35 119 41 177 41 39 0 87 -4 108 -8 23 -5 37 -5
37 1 0 13 -91 33 -148 33 -26 0 -86 -14 -134 -30z"/>
<path d="M5845 10431 c-45 -16 -48 -19 -30 -28 11 -6 85 -25 165 -43 80 -18
159 -38 177 -45 28 -12 37 -11 85 12 47 22 51 26 34 35 -24 14 -92 31 -241 63
-138 29 -126 29 -190 6z"/>
<path d="M3643 10388 c-11 -13 -29 -39 -39 -58 -21 -40 -74 -240 -64 -240 21
0 45 51 66 139 13 56 33 119 44 141 23 46 22 49 -7 18z"/>
<path d="M1724 10163 l-51 -25 -17 -132 c-9 -72 -21 -203 -26 -291 -6 -101
-18 -190 -31 -240 -27 -107 -48 -498 -51 -994 -2 -290 0 -388 11 -428 7 -29
18 -53 24 -53 5 0 30 12 54 26 33 19 43 30 38 42 -29 75 -33 522 -9 1012 13
276 19 341 41 435 18 79 28 158 34 278 4 93 15 216 24 273 9 57 15 108 13 113
-1 5 -26 -3 -54 -16z"/>
<path d="M5673 10073 c-50 -4 -66 -14 -43 -28 16 -10 57 -95 75 -158 9 -31 18
-57 20 -57 14 0 87 162 99 223 6 27 6 27 -46 25 -29 -1 -77 -3 -105 -5z"/>
<path d="M5387 9915 c-146 -93 -253 -172 -291 -214 -23 -25 -19 -25 78 -5 67
14 90 25 184 90 175 122 197 138 200 157 5 23 -6 67 -16 67 -4 0 -74 -43 -155
-95z"/>
<path d="M4805 9980 c-14 -45 -108 -154 -274 -320 -190 -189 -217 -226 -276
-394 -16 -43 -38 -93 -50 -110 -35 -53 -37 -56 -23 -56 21 0 55 62 103 186 24
63 59 136 77 162 18 26 107 121 198 212 160 158 228 237 264 308 14 27 14 32
2 32 -8 0 -17 -9 -21 -20z"/>
<path d="M5923 9962 c-51 -25 -67 -42 -40 -42 30 0 108 -63 160 -128 31 -39
77 -87 102 -107 l45 -37 57 22 c32 13 62 26 66 30 5 4 -11 23 -35 41 -45 36
-75 68 -121 131 -29 41 -139 118 -166 117 -9 0 -40 -12 -68 -27z"/>
<path d="M5723 9797 c-30 -9 -32 -13 -59 -121 -15 -61 -40 -155 -56 -210 -16
-54 -28 -99 -26 -101 2 -1 17 2 34 6 33 9 43 33 89 219 9 36 18 66 20 68 2 2
13 -27 25 -65 33 -100 91 -233 102 -233 8 0 47 17 56 25 2 2 -10 30 -27 63
-16 32 -48 117 -70 188 -56 182 -50 172 -88 161z"/>
<path d="M6518 9653 l-47 -36 41 -41 c22 -22 53 -59 68 -81 27 -39 140 -257
140 -270 0 -3 16 -31 35 -61 84 -130 118 -213 195 -464 90 -293 90 -290 90
-599 0 -318 -8 -364 -89 -524 -73 -143 -218 -363 -289 -439 l-65 -68 18 -137
18 -137 24 30 c35 43 146 212 233 355 118 193 216 434 246 599 16 92 19 588 3
676 -15 84 -134 471 -173 562 -55 129 -133 277 -218 416 -77 126 -168 256
-178 255 -3 0 -26 -17 -52 -36z"/>
<path d="M5942 9648 l-62 -30 67 -48 c64 -44 119 -98 188 -181 17 -20 50 -49
75 -64 25 -15 54 -36 65 -45 19 -18 22 -18 79 6 33 13 61 26 64 29 9 9 -20 34
-73 64 -34 20 -73 55 -106 96 -42 52 -176 170 -224 197 -5 3 -38 -8 -73 -24z"/>
<path d="M5434 9629 c-10 -12 -46 -42 -79 -67 -72 -55 -285 -245 -281 -250 2
-2 38 3 79 11 73 14 80 18 169 94 51 43 126 106 167 138 41 33 83 68 95 77 20
17 19 18 -55 18 -65 0 -79 -3 -95 -21z"/>
<path d="M5883 9225 l-32 -14 15 -53 c48 -165 138 -406 156 -419 5 -3 4 -37
-2 -75 -5 -38 -10 -81 -10 -97 0 -27 1 -27 32 -14 l32 13 18 140 c9 76 17 143
17 147 1 4 -14 5 -33 2 l-33 -7 -30 84 c-29 79 -63 189 -63 202 0 4 18 -5 40
-19 45 -28 68 -31 94 -12 17 12 12 18 -55 60 -41 26 -83 54 -94 62 -17 12 -25
12 -52 0z"/>
<path d="M5590 9213 c-36 -24 -79 -64 -102 -96 l-20 -28 25 6 c24 6 26 4 31
-47 14 -135 17 -198 9 -198 -5 0 -21 -29 -37 -65 -16 -36 -48 -96 -72 -132
-23 -37 -42 -69 -40 -70 1 -1 15 1 30 5 22 6 42 29 85 99 31 51 59 92 64 92 4
1 7 -17 7 -38 0 -47 9 -55 46 -41 26 10 27 12 20 68 -4 31 -14 84 -23 117 -9
34 -17 109 -18 172 -2 106 -1 113 21 134 41 39 22 55 -26 22z"/>
<path d="M5281 9153 c-26 -5 -78 -40 -121 -81 -13 -13 -51 -44 -85 -69 -56
-43 -58 -46 -27 -40 18 4 53 23 76 42 24 19 46 35 49 35 3 0 13 -25 22 -55 8
-30 17 -55 20 -55 2 0 17 5 32 12 15 7 29 12 30 13 1 0 -6 33 -16 72 l-19 72
39 27 c38 26 47 35 32 33 -5 -1 -19 -4 -32 -6z"/>
<path d="M4645 9091 c-48 -28 -49 -29 -47 -72 1 -24 7 -154 13 -289 12 -273
30 -403 83 -585 80 -276 158 -444 270 -580 l25 -30 31 31 32 31 -40 59 c-50
74 -81 136 -133 266 -53 133 -55 139 -31 103 10 -16 28 -37 38 -46 25 -21 116
-51 125 -42 4 5 10 24 14 43 6 35 6 35 -42 50 -44 14 -51 20 -78 75 -21 41
-46 72 -81 100 -54 42 -57 48 -89 211 l-6 31 138 6 c200 9 203 8 270 -77 88
-112 194 -331 216 -443 11 -59 13 -63 39 -63 26 0 28 3 28 39 0 21 -10 70 -21
107 -20 65 -21 76 -9 194 20 210 23 270 13 270 -5 0 -15 -60 -21 -132 -7 -73
-15 -153 -19 -177 l-6 -43 -54 105 c-31 58 -84 141 -118 185 -83 104 -91 107
-301 98 l-161 -6 -7 52 c-3 29 -6 167 -6 306 0 138 -3 252 -7 252 -5 0 -30
-13 -58 -29z"/>
<path d="M6287 9038 l-29 -10 32 -33 31 -32 -25 -7 c-16 -4 -26 -13 -26 -25 0
-10 -7 -38 -15 -61 -15 -42 -15 -42 8 -36 12 3 27 6 34 6 6 0 19 23 28 50 9
28 19 50 23 50 3 0 27 -20 52 -45 44 -43 48 -45 78 -34 18 6 32 13 32 14 0 2
-26 28 -57 57 -32 29 -73 68 -91 86 -37 35 -35 35 -75 20z"/>
<path d="M6663 8974 c-35 -21 -43 -32 -44 -58 -4 -71 3 -177 17 -266 18 -112
31 -499 18 -509 -5 -3 -18 -25 -28 -48 -29 -67 -77 -113 -117 -113 -60 0 -79
-10 -79 -39 0 -47 12 -55 75 -47 67 8 105 26 134 62 l21 27 0 -67 c0 -92 -26
-208 -61 -279 -33 -65 -34 -65 46 -31 37 15 76 87 101 186 33 127 29 731 -7
922 -5 28 -10 104 -12 169 -1 70 -6 117 -12 117 -5 -1 -29 -12 -52 -26z"/>
<path d="M4870 8773 c-8 -4 -35 -21 -59 -40 l-44 -33 44 0 c24 0 75 -9 112
-19 l68 -20 50 36 50 36 -88 23 c-92 24 -108 26 -133 17z"/>
<path d="M6350 8658 l-45 -33 63 -7 c34 -4 71 -8 80 -10 9 -1 39 10 66 26 61
36 51 48 -46 53 -69 3 -75 2 -118 -29z"/>
<path d="M4435 8522 l-50 -27 -8 -125 c-11 -182 -13 -405 -4 -482 l8 -67 55
27 c52 25 55 29 50 57 -15 88 -17 235 -6 412 7 109 11 206 9 215 -4 15 -10 14
-54 -10z"/>
<path d="M4890 8405 c-19 -20 -25 -39 -28 -88 -3 -53 0 -70 25 -117 33 -63 79
-94 165 -111 65 -13 123 -1 168 37 34 29 37 39 14 48 -9 4 -28 -4 -46 -19 -24
-20 -40 -25 -86 -24 -31 0 -77 8 -102 17 -37 14 -49 26 -73 72 -32 62 -33 125
-2 160 17 18 15 50 -3 50 -5 0 -19 -11 -32 -25z"/>
<path d="M6072 8305 c4 -154 22 -156 26 -2 2 101 0 117 -13 117 -13 0 -15 -16
-13 -115z"/>
<path d="M6275 8392 c-94 -59 -165 -183 -218 -384 l-34 -127 28 -10 c16 -5 31
-6 33 -2 3 4 19 61 36 127 36 137 73 221 125 282 61 70 75 74 241 66 l145 -7
-3 34 -3 34 -160 3 c-141 2 -164 0 -190 -16z"/>
<path d="M4536 8344 l-49 -26 7 -97 c9 -131 38 -266 71 -331 27 -54 122 -197
168 -254 l24 -29 52 30 52 30 -24 29 c-48 58 -135 190 -165 250 -35 70 -60
188 -69 327 -3 53 -9 97 -12 97 -3 -1 -28 -12 -55 -26z"/>
<path d="M5048 8315 c-15 -33 3 -75 32 -75 11 0 27 11 36 25 15 23 15 27 0 50
-9 14 -25 25 -36 25 -12 0 -25 -10 -32 -25z"/>
<path d="M6530 8279 c0 -59 -25 -104 -77 -139 -78 -51 -154 -52 -205 -4 -24
24 -59 28 -58 7 1 -15 45 -58 73 -70 38 -17 120 -16 162 1 51 22 104 65 122
100 37 71 38 146 2 146 -16 0 -19 -7 -19 -41z"/>
<path d="M6337 8292 c-33 -36 -15 -82 30 -82 41 0 50 59 15 88 -21 16 -26 15
-45 -6z"/>
<path d="M5453 7743 c-8 -3 -13 -23 -13 -49 0 -24 -29 -145 -66 -271 -73 -253
-94 -349 -94 -429 0 -50 2 -54 24 -54 23 0 24 2 28 103 4 87 13 131 63 297 85
289 101 362 89 394 -6 17 -11 18 -31 9z"/>
<path d="M6016 7734 c-10 -27 11 -124 81 -363 57 -195 66 -240 71 -328 4 -102
4 -103 30 -103 l25 0 -6 93 c-5 73 -22 147 -82 356 -41 145 -75 282 -75 306 0
30 -5 45 -16 49 -21 8 -21 8 -28 -10z"/>
<path d="M2146 7530 c-21 -16 -41 -32 -44 -34 -7 -8 193 -399 238 -466 44 -66
110 -195 135 -267 l18 -52 48 25 c26 13 50 28 53 33 12 18 -84 224 -147 319
-20 29 -84 147 -143 262 -59 116 -110 210 -113 210 -3 0 -23 -14 -45 -30z"/>
<path d="M3005 7351 l-50 -18 -3 -224 c-4 -300 15 -426 109 -738 79 -266 160
-438 305 -647 114 -166 204 -260 327 -341 64 -42 110 -81 129 -109 l31 -43 50
19 c27 10 52 21 55 24 7 8 -48 85 -73 103 -11 8 -54 36 -95 63 -200 128 -424
446 -555 785 -52 135 -115 358 -147 523 -20 104 -23 145 -22 370 1 138 -1 252
-5 251 -3 0 -28 -8 -56 -18z"/>
<path d="M5498 6511 c-21 -14 -38 -31 -38 -37 0 -21 67 -72 120 -89 40 -13 77
-16 178 -13 139 4 179 17 235 75 l27 29 -41 33 -40 33 -22 -20 c-38 -34 -66
-43 -150 -46 -101 -4 -169 9 -205 39 l-27 23 -37 -27z"/>
<path d="M127 2482 c-16 -17 -15 -19 18 -35 43 -21 56 -21 80 -3 18 13 17 14
-11 28 -53 28 -70 29 -87 10z"/>
<path d="M450 2318 c0 -31 10 -44 40 -51 16 -4 33 0 49 12 l23 18 -50 21 c-62
27 -62 27 -62 0z"/>
<path d="M3842 172 l-52 -17 32 -26 33 -26 55 19 c92 31 88 27 60 48 -30 23
-57 24 -128 2z"/>
</g>
</svg>
